#N canvas 37 107 368 230 10;
#X text 10 12 NAME windowing;
#X text 10 52 AUTHOR Joe Sarlo;
#X text 10 72 MAINTAINER Fred Jan Kraan <fjkraan@electrickery.nl>;
#X text 10 92 LICENSE GPLv2 or later;
#X text 10 112 VERSION 0.3.0;
#X text 10 32 DESCRIPTION set of window generators;
