#N canvas 1 80 559 497 10;
#X obj 4 472 cnv 15 550 20 empty \$0-pddp.cnv.footer empty 20 12 0
14 -228856 -66577 0;
#X obj 4 1 cnv 15 550 40 empty \$0-pddp.cnv.header cosine~ 3 12 0 18
-204280 -1 0;
#X obj 3 250 cnv 3 550 3 empty \$0-pddp.cnv.inlets inlets 8 12 0 13
-228856 -1 0;
#X obj 3 310 cnv 3 550 3 empty \$0-pddp.cnv.outlets outlet 8 12 0 13
-228856 -1 0;
#X obj 3 370 cnv 3 550 3 empty \$0-pddp.cnv.more_info more_info 8 12
0 13 -228856 -1 0;
#X obj 72 270 cnv 17 3 30 empty \$0-pddp.cnv.let.0 0 5 9 0 16 -228856
-162280 0;
#X text 168 58 formula:;
#X floatatom 94 117 5 0 0 0 - - -, f 5;
#X obj 97 98 hsl 71 15 -1 1 0 0 empty empty empty -2 -6 0 10 -262144
-1 -1 7000 1;
#X msg 94 78 1;
#X obj 94 58 loadbang;
#X text 13 99 height --->;
#X text 103 388 Windowing functions are used with FFTs. These transform
the signal block-by-block into a spectral representation whose resolution
in both the frequency and time domains are proportional to their size
(as a power-of-two in PD). The different windows have different characteristics
in terms of stopband attenuation and noise bandwidth.;
#X obj 94 135 sig~ 1;
#N canvas 0 50 450 300 (subpatch) 0;
#X array \$0-cosine 64 float 0;
#X coords 0 1 63 -1 200 140 1;
#X restore 336 105 graph;
#X text 169 70 cos(pi*x/2);
#X text 15 24 description: generates a cosine window for each dsp block
;
#X obj 94 228 tabsend~ \$0-cosine;
#X obj 72 330 cnv 17 3 30 empty \$0-pddp.cnv.let.0 0 5 9 0 16 -228856
-162280 0;
#X text 102 269 SIGNAL: the height (amplitude) of the window is controled
by the signal on its inlet.;
#X text 103 328 SIGNAL: a cosine (otherwise known as a sine - actually
it's half a sine) window with size=dsp blocksize;
#N canvas 309 222 494 344 META 0;
#X text 12 125 HELP_PATCH_AUTHORS "pd meta" information added by Jonathan
Wilkes for Pd version 0.42.;
#X text 12 25 LICENSE GPL v2;
#X text 12 5 KEYWORDS signal;
#X text 12 65 INLET_0 signal;
#X text 12 85 OUTLET_0 signal;
#X text 12 105 AUTHOR Joe Sarlo;
#X text 12 45 DESCRIPTION generate a cosine window for each dsp block
;
#X restore 502 474 pd META;
#X obj 255 215 windowing/dspSwitch~;
#X obj 94 182 windowing/cosine~;
#X obj 501 5 cosine~;
#X connect 7 0 13 0;
#X connect 8 0 7 0;
#X connect 9 0 8 0;
#X connect 10 0 9 0;
#X connect 13 0 23 0;
#X connect 23 0 17 0;
