#N canvas 1 80 559 514 10;
#X obj 4 481 cnv 15 550 20 empty \$0-pddp.cnv.footer empty 20 12 0
14 -228856 -66577 0;
#X obj 4 3 cnv 15 550 40 empty \$0-pddp.cnv.header hamming~ 3 12 0
18 -204280 -1 0;
#X obj 3 249 cnv 3 550 3 empty \$0-pddp.cnv.inlets inlets 8 12 0 13
-228856 -1 0;
#X obj 3 309 cnv 3 550 3 empty \$0-pddp.cnv.outlets outlet 8 12 0 13
-228856 -1 0;
#X obj 3 369 cnv 3 550 3 empty \$0-pddp.cnv.more_info more_info 8 12
0 13 -228856 -1 0;
#X obj 72 269 cnv 17 3 25 empty \$0-pddp.cnv.let.0 0 5 9 0 16 -228856
-162280 0;
#X text 168 60 formula:;
#X floatatom 94 116 5 0 0 0 - - -, f 5;
#X obj 97 97 hsl 71 15 -1 1 0 0 empty empty empty -2 -6 0 10 -262144
-1 -1 7000 1;
#X msg 94 77 1;
#X obj 94 57 loadbang;
#X text 15 96 height --->;
#X text 15 26 description: generates a hamming window for each dsp
block;
#X obj 94 134 sig~ 1;
#N canvas 0 50 450 300 (subpatch) 0;
#X array \$0-hamming 64 float 0;
#X coords 0 1 63 -1 200 140 1;
#X restore 334 101 graph;
#X text 167 73 0.54+0.46*(cos(pi*x));
#X text 102 391 Windowing functions are used with FFTs. These transform
the signal block-by-block into a spectral representation whose resolution
in both the frequency and time domains are proportional to their size
(as a power-of-two in PD). The different windows have different characteristics
in terms of stopband attenuation and noise bandwidth.;
#X text 103 327 SIGNAL: a hamming (raised cosine) window with size=dsp
blocksize;
#X obj 94 224 tabsend~ \$0-hamming;
#X obj 72 329 cnv 17 3 25 empty \$0-pddp.cnv.let.0 0 5 9 0 16 -228856
-162280 0;
#X text 102 268 SIGNAL: the height (amplitude) of the window is controlled
by the signal on its inlet.;
#N canvas 288 199 494 344 META 0;
#X text 12 125 HELP_PATCH_AUTHORS "pd meta" information added by Jonathan
Wilkes for Pd version 0.42.;
#X text 12 25 LICENSE GPL v2;
#X text 12 5 KEYWORDS signal;
#X text 12 65 INLET_0 signal;
#X text 12 85 OUTLET_0 signal;
#X text 12 105 AUTHOR Joe Sarlo;
#X text 12 45 DESCRIPTION generate a hamming window for each dsp block
;
#X restore 505 481 pd META;
#X obj 487 6 hamming~;
#X obj 94 180 windowing/hamming~;
#X obj 255 211 windowing/dspSwitch~;
#X connect 7 0 13 0;
#X connect 8 0 7 0;
#X connect 9 0 8 0;
#X connect 10 0 9 0;
#X connect 13 0 23 0;
#X connect 23 0 18 0;
