#N canvas 1 80 560 517 10;
#X obj 4 479 cnv 15 550 20 empty \$0-pddp.cnv.footer empty 20 12 0
14 -228856 -66577 0;
#X obj 4 1 cnv 15 550 40 empty \$0-pddp.cnv.header lanczos~ 3 12 0
18 -204280 -1 0;
#X obj 3 257 cnv 3 550 3 empty \$0-pddp.cnv.inlets inlets 8 12 0 13
-228856 -1 0;
#X obj 3 317 cnv 3 550 3 empty \$0-pddp.cnv.outlets outlet 8 12 0 13
-228856 -1 0;
#X obj 3 370 cnv 3 550 3 empty \$0-pddp.cnv.more_info more_info 8 12
0 13 -228856 -1 0;
#X obj 72 277 cnv 17 3 30 empty \$0-pddp.cnv.let.0 0 5 9 0 16 -228856
-162280 0;
#X text 168 51 formula:;
#X obj 97 97 hsl 71 15 -1 1 0 0 empty empty empty -2 -6 0 10 -262144
-1 -1 7000 1;
#X msg 94 77 1;
#X obj 94 57 loadbang;
#X text 16 96 height --->;
#X obj 94 115 sig~ 1;
#N canvas 0 50 450 300 (subpatch) 0;
#X array \$0-lanczos 64 float 0;
#X coords 0 1 63 -1 200 140 1;
#X restore 326 105 graph;
#X text 102 391 Windowing functions are used with FFTs. These transform
the signal block-by-block into a spectral representation whose resolution
in both the frequency and time domains are proportional to their size
(as a power-of-two in PD). The different windows have different characteristics
in terms of stopband attenuation and noise bandwidth.;
#X text 102 276 SIGNAL: the height (amplitude) of the window is controlled
by the signal on its inlet.;
#X text 169 63 sin(pi*x)/(pi*x);
#X text 15 24 description: generates a lanczos window for each dsp
block;
#X obj 94 228 tabsend~ \$0-lanczos;
#X text 103 335 SIGNAL: a lanczos (sinc) window with size=dsp blocksize
;
#X obj 72 337 cnv 17 3 17 empty \$0-pddp.cnv.let.0 0 5 9 0 16 -228856
-162280 0;
#N canvas 288 245 494 344 META 0;
#X text 12 125 HELP_PATCH_AUTHORS "pd meta" information added by Jonathan
Wilkes for Pd version 0.42.;
#X text 12 25 LICENSE GPL v2;
#X text 12 5 KEYWORDS signal;
#X text 12 65 INLET_0 signal;
#X text 12 85 OUTLET_0 signal;
#X text 12 105 AUTHOR Joe Sarlo;
#X text 12 45 DESCRIPTION generate a lanczos window for each dsp block
;
#X restore 505 480 pd META;
#X obj 483 4 lanczos~;
#X obj 95 170 windowing/lanczos~;
#X obj 255 215 windowing/dspSwitch~;
#X connect 7 0 11 0;
#X connect 8 0 7 0;
#X connect 9 0 8 0;
#X connect 11 0 22 0;
#X connect 22 0 17 0;
